/* XPM */
static char * system_xpm[] = {
"16 16 7 1",
" 	c None",
".	c #000000",
"+	c #FFFF00",
"@	c #C0C000",
"#	c #FFFFFF",
"$	c #D9D9D9",
"%	c #A0A0A0",
"          ...   ",
"         ..+... ",
"         .+@+@..",
"     .....@..@@.",
"  ....#..++..+..",
" ..#.#$$..@@@+. ",
" .##$$$$$%..+.. ",
" ..$$$%$%$....  ",
"..#$$...%%%..   ",
".#$$%. .$%$$.   ",
"..$%$...%$$..   ",
" ..$%$%%%$..    ",
" .$%%%%$$$$.    ",
" ..%.%$$.$..    ",
"  ....$....     ",
"     ...        "};
