/* XPM */
static const unsigned char * collpane_xpm[] = {
"22 22 39 1",
" 	c None",
".	c #FFFFFF",
"+	c #000000",
"@	c #FBFBFB",
"#	c #FBFBFB",
"$	c #F8F8F8",
"%	c #0D0D0D",
"&	c #DDE2EC",
"*	c #7A7A7A",
"=	c #7C7C7C",
";	c #D5D5D5",
">	c #708CBD",
"'	c #DADADA",
"{	c #F2F2F2",
"]	c #D9D9D9",
"^	c #787878",
"/	c #797979",
"_	c #F8F8F8",
":	c #121212",
"<	c #708CBD",
"}	c #090909",
"|	c #002692",
"'	c #E2F2FE",
"(	c #FEFFFF",
")	c #FCFFFF",
"[	c #5D5E5A",
",	c #DCECF7",
"-	c #FAFDFE",
"~	c #EDFFFE",
"0	c #D3F2FF",
"1	c #E9F8FD",
"2	c #E1F1FC",
"3	c #DFF0FD",
"4	c #F2FDFE",
"5	c #D5EEFE",
"6	c #CFE7F7",
"7	c #D5F5FF",
"8	c #DCFBFF",
"9	c #D6EFFA",
"@@........$.........  ",
"$&&&&&&&&&&&&&&&&&&&> ",
"@& |||||||||||||| &&> ",
".&|''''''''''''''|&&> ",
".&|()..[[.[.[(().|&&> ",
"@&|',-[~~[[0[1234|&&> ",
".&|56~[~~[[[33333|&&> ",
"@&|7089[[9[9[9999|&&> ",
"@&|66666666666666|&&> ",
".& |||||||||||||| &&> ",
".&&&&&&&&&&&&&&&&&&&> ",
"@&&&&&&&&&&&&&&&&&&&> ",
".&&&&&&&&&&&&&&&&&&&> ",
"$&&&&&&&&&&&&&&&&&&&> ",
".&&&&&&&&&&&&&&&&&&&> ",
"@&&&&&&&&&&&&&&&&&&&> ",
".&&&&&&&&&&&&&&&&&&&> ",
".&&&&&&&&&&&&&&&&&&&> ",
"@&&&&&&&&&&&&&&&&&&&> ",
".&&&&&&&&&&&&&&&&&&&> ",
".&&&&&&&&&&&&&&&&&&&> ",
" >>>>>>>>>>>>>>>>>>>> "};
