/* XPM */
static const unsigned char * treebook_xpm[] = {
"21 21 17 1",
" 	c None",
".	c #3E9ADE",
"+	c #FFFFFF",
"@	c #555753",
"#	c #DDE2EC",
"$	c #00F0F0",
"%	c #808080",
"&	c #FFFF00",
"*	c #386093",
"=	c #F9FFFF",
"-	c #F5FFFF",
";	c #EBEBEB",
">	c #ECFFFF",
",	c #000000",
"'	c #EDFFFF",
")	c #E3FFFF",
"!	c #848284",
"                     ",
" ....................",
" .+@+++++.##########.",
" .@$@++++.#%%%%%%%%%.",
" .+@+++++.#%++++++++.",
" .+@+++++.#%++++++++.",
" .+@+@+++.#%%%%%%%%%.",
" .+@@&@**.##########.",
" .+@+@+++.#%%%%%%%%%.",
" .+@+@+++.#%++++++++.",
" .+@+@+++.#%++++++++.",
" .+@+@***.#%%%%%%%%%.",
" .+@+@+==.##########.",
" .+@+@+==.##########.",
" .+@+@++-.##;;;;;;;#.",
" .+@++***.#;>,>>,>,;.",
" .+@+++''.#;,>,>,,>;.",
" .+@+@+''.#;>,>>,>,;.",
" .++@&@**.#;;;;;;;;;.",
" .+++@+)).##!!!!!!!#.",
" ...................."};
