/* XPM */
static char * htmlwin_xpm[] = {
"22 22 181 2",
"  	c None",
". 	c #A7C4E8",
"+ 	c #5E81B7",
"@ 	c #92B9E8",
"# 	c #FF6444",
"$ 	c #6E90C0",
"% 	c #668BC0",
"& 	c #7BA7DC",
"* 	c #7AA4DB",
"= 	c #79A3DA",
"- 	c #79A2D8",
"; 	c #78A1D7",
"> 	c #769FD5",
", 	c #749ED3",
"' 	c #739CD1",
") 	c #729ACF",
"! 	c #7097CD",
"~ 	c #6E95CB",
"{ 	c #6C94C9",
"] 	c #6B91C7",
"^ 	c #698FC4",
"/ 	c #678DC3",
"( 	c #D4D4D4",
"_ 	c #E1E4F0",
": 	c #C8CFE6",
"< 	c #C6CDE4",
"[ 	c #DEE2EF",
"} 	c #D3D3D3",
"| 	c #6387BD",
"1 	c #FFFFFF",
"2 	c #FCFCFC",
"3 	c #D8DCED",
"4 	c #B0BADB",
"5 	c #C0C7E3",
"6 	c #CFD4EA",
"7 	c #CED4E9",
"8 	c #CAD1E8",
"9 	c #D1D5E5",
"0 	c #F4F5F7",
"a 	c #FDFDFD",
"b 	c #6085BA",
"c 	c #FFFFFE",
"d 	c #BDC4E0",
"e 	c #A7B0DA",
"f 	c #E3E5F5",
"g 	c #E8EAF7",
"h 	c #D8DDF0",
"i 	c #CDD4EB",
"j 	c #D3D9EE",
"k 	c #E4E7F5",
"l 	c #C5CBE8",
"m 	c #B4BCD9",
"n 	c #F8F9FA",
"o 	c #DBDFEB",
"p 	c #7280C4",
"q 	c #D2D6F0",
"r 	c #BCC3E5",
"s 	c #9EAAD8",
"t 	c #ABB5DC",
"u 	c #A6B1DA",
"v 	c #B9C2E3",
"w 	c #D6DAEF",
"x 	c #D0D5EE",
"y 	c #8C97D0",
"z 	c #C9CEE4",
"A 	c #7885BB",
"B 	c #4B5EB3",
"C 	c #A5AFDD",
"D 	c #8594CE",
"E 	c #687BC0",
"F 	c #6679BF",
"G 	c #7384C5",
"H 	c #CDD3EB",
"I 	c #EBECF8",
"J 	c #C9CEEB",
"K 	c #929CD7",
"L 	c #6878BB",
"M 	c #5C7EB5",
"N 	c #364A9C",
"O 	c #132E96",
"P 	c #485DB0",
"Q 	c #A7B0DD",
"R 	c #909DD1",
"S 	c #3C54AB",
"T 	c #4C62B3",
"U 	c #9DA9D6",
"V 	c #C1C8E7",
"W 	c #C1C6E9",
"X 	c #848FD2",
"Y 	c #3247A1",
"Z 	c #5A7CB2",
"` 	c #2D4296",
" .	c #0B2792",
"..	c #253E9D",
"+.	c #8995D0",
"@.	c #D4D7F1",
"#.	c #AFB7DE",
"$.	c #9EAAD6",
"%.	c #5468B7",
"&.	c #465BB2",
"*.	c #A1AADD",
"=.	c #6D7CC5",
"-.	c #193193",
";.	c #587AB0",
">.	c #50619F",
",.	c #042190",
"'.	c #1C3598",
").	c #5265B4",
"!.	c #BEC3E8",
"~.	c #9DA8D6",
"{.	c #6476BD",
"].	c #5467B9",
"^.	c #4B5EB5",
"/.	c #848ED1",
"(.	c #6777C4",
"_.	c #3A4E9F",
":.	c #9BA1BA",
"<.	c #0C2790",
"[.	c #586AB7",
"}.	c #DBDEF2",
"|.	c #8B99CD",
"1.	c #3E55AD",
"2.	c #455AB1",
"3.	c #324AA6",
"4.	c #4055AF",
"5.	c #2B44A4",
"6.	c #7A84AA",
"7.	c #5678AD",
"8.	c #E6E6E2",
"9.	c #505E94",
"0.	c #18339A",
"a.	c #6274C2",
"b.	c #B6BEE2",
"c.	c #8794CD",
"d.	c #6979C1",
"e.	c #5B6EBA",
"f.	c #4E64B7",
"g.	c #2943A5",
"h.	c #405193",
"i.	c #D6D7D8",
"j.	c #5475AC",
"k.	c #D2D2D3",
"l.	c #5F6A97",
"m.	c #4E60A9",
"n.	c #8190CF",
"o.	c #A1ABDE",
"p.	c #9EAADE",
"q.	c #8796D3",
"r.	c #586AB1",
"s.	c #536196",
"t.	c #BCBEC5",
"u.	c #5373AA",
"v.	c #E1E0DE",
"w.	c #AEB0B9",
"x.	c #898DA5",
"y.	c #9296B0",
"z.	c #9196B1",
"A.	c #888DA6",
"B.	c #A3A5B2",
"C.	c #D8D8D8",
"D.	c #AFAFAF",
"E.	c #CECECE",
"F.	c #D6D6D6",
"G.	c #D2D2D2",
"H.	c #D0D0D0",
"I.	c #CDCDCD",
"J.	c #CBCBCB",
"K.	c #CACACA",
"L.	c #C8C8C8",
"M.	c #C6C6C6",
"N.	c #C5C5C5",
"O.	c #C3C3C3",
"P.	c #C2C2C2",
"Q.	c #5172A9",
"R.	c #5C7EB4",
"S.	c #587BB1",
"T.	c #5779AE",
"U.	c #5676AD",
"V.	c #5475AB",
"W.	c #5373A9",
"X.	c #5171A9",
"                                            ",
"                                            ",
". + + + + + + + + + + + + + + + + + + + + . ",
"+ @ @ @ @ @ @ @ @ @ @ @ @ @ @ @ @ @ @ # # $ ",
"+ @ @ @ @ @ @ @ @ @ @ @ @ @ @ @ @ @ @ # # % ",
"+ & & * = - - ; > , , ' ) ! ! ~ { ] ] ^ / % ",
"+ ( ( ( ( ( ( ( ( _ : < [ ( ( ( ( } } } } | ",
"+ 1 1 1 1 2 2 3 4 5 6 7 8 5 9 0 a 1 1 1 1 b ",
"+ 1 1 1 1 c d e f g h i j k l m n 1 1 1 1 + ",
"+ 1 1 1 1 o p q r s t u v w x y z 1 1 1 1 + ",
"+ 1 1 1 1 A B C D E F G H I J K L 1 1 1 1 M ",
"+ 1 1 1 1 N O P Q R S T U V W X Y 1 1 1 1 Z ",
"+ 1 1 1 1 `  ...+.@.#.$.%.&.*.=.-.1 1 1 1 ;.",
"+ 1 1 1 1 >.,.'.).!.~.{.].^./.(._.1 1 1 1 ;.",
"+ 1 1 1 1 :.<. .[.}.|.1.2.3.4.5.6.1 1 1 1 7.",
"+ 1 1 1 1 8.9.0.a.b.c.d.e.f.g.h.i.1 1 1 1 j.",
"+ 1 1 1 1 1 k.l.m.n.o.p.q.r.s.t.1 1 1 1 1 u.",
"+ 1 1 1 1 1 1 v.w.x.y.z.A.B.C.1 1 1 1 1 1 u.",
"+ D.E.E.F.( ( G.H.I.I.J.K.L.L.M.N.O.O.P.D.Q.",
". + + + + + + + + + + R.Z S.S.T.U.V.V.W.X.. ",
"                                            ",
"                                            "};
