/* XPM */
static char * htmllbox_xpm[] = {
"22 22 204 2",
"  	c None",
". 	c #333366",
"+ 	c #FCFCFC",
"@ 	c #FEFEFD",
"# 	c #FEFEFE",
"$ 	c #EAECF4",
"% 	c #D0D5E9",
"& 	c #C3CAE3",
"* 	c #CED4E8",
"= 	c #E8EBF3",
"- 	c #F2F2F2",
"; 	c #DEFFFF",
"> 	c #D4F8FC",
", 	c #D2F7FD",
"' 	c #CBF1FB",
") 	c #BDE8F8",
"! 	c #B3E1F5",
"~ 	c #FFFFFE",
"{ 	c #EBEDF5",
"] 	c #B3BCDC",
"^ 	c #B5BEDE",
"/ 	c #CAD0E8",
"( 	c #CCD2E8",
"_ 	c #C6CDE6",
": 	c #BEC5E0",
"< 	c #DFE1EA",
"[ 	c #D9FCFE",
"} 	c #808080",
"| 	c #B5E3F6",
"1 	c #AADBF3",
"2 	c #E2E5F0",
"3 	c #99A4D2",
"4 	c #D4D8EE",
"5 	c #F2F2FB",
"6 	c #E2E5F4",
"7 	c #D6DCEF",
"8 	c #D3D9EE",
"9 	c #E2E6F4",
"0 	c #B6BEDF",
"a 	c #D1D6E4",
"b 	c #A3D7F1",
"c 	c #FAFBFA",
"d 	c #7987C3",
"e 	c #CCD0EC",
"f 	c #DEE0F3",
"g 	c #C1C9E7",
"h 	c #C6CCE8",
"i 	c #C0C8E5",
"j 	c #B5BEE1",
"k 	c #C2CAE7",
"l 	c #DDE0F2",
"m 	c #D2D6EF",
"n 	c #8895CB",
"o 	c #EEEFF5",
"p 	c #CDF4FB",
"q 	c #C3ECF9",
"r 	c #BAE6F7",
"s 	c #AEDEF4",
"t 	c #97CFEF",
"u 	c #B2BAD8",
"v 	c #6F7CC5",
"w 	c #C2C8E9",
"x 	c #A7B1DC",
"y 	c #7E8ECA",
"z 	c #8A99CF",
"A 	c #909ED1",
"B 	c #98A5D5",
"C 	c #D5DAEE",
"D 	c #D6DAF0",
"E 	c #BBC2E5",
"F 	c #909AD4",
"G 	c #A1AAD1",
"H 	c #C7EFF9",
"I 	c #A5D8F2",
"J 	c #9AD0EF",
"K 	c #8DC7EC",
"L 	c #5E6EAF",
"M 	c #344AA7",
"N 	c #8B98D1",
"O 	c #8896CF",
"P 	c #6F80C3",
"Q 	c #5C70BA",
"R 	c #576CB8",
"S 	c #8493CC",
"T 	c #F7F7FD",
"U 	c #C2C7E9",
"V 	c #8590D2",
"W 	c #4E60AF",
"X 	c #31469A",
"Y 	c #0F2A93",
"Z 	c #2F47A3",
"` 	c #9CA6D8",
" .	c #B3BBE1",
"..	c #556AB6",
"+.	c #3951AA",
"@.	c #A7B1DA",
"#.	c #B7BEE3",
"$.	c #B9BFE6",
"%.	c #7581CB",
"&.	c #2A409C",
"*.	c #CCCBCC",
"=.	c #D0D0D0",
"-.	c #D7D7D6",
";.	c #DCDCDD",
">.	c #E3E4E3",
",.	c #EBEAEB",
"'.	c #2D4296",
").	c #0C2792",
"!.	c #1B3598",
"~.	c #707FC4",
"{.	c #CCD0EE",
"].	c #C8CDEA",
"^.	c #8D9ACE",
"/.	c #A6B1DA",
"(.	c #243DA2",
"_.	c #6374BF",
":.	c #A9B0E1",
"<.	c #5F70BE",
"[.	c #152E90",
"}.	c #CCCBCB",
"|.	c #495B9D",
"1.	c #052290",
"2.	c #3D53AA",
"3.	c #A9B0DF",
"4.	c #C4CAE9",
"5.	c #6B7CBF",
"6.	c #7484C6",
"7.	c #4358B2",
"8.	c #596ABC",
"9.	c #949CD9",
"0.	c #6474C1",
"a.	c #32479C",
"b.	c #818AB0",
"c.	c #0F2B95",
"d.	c #031F8C",
"e.	c #384EA7",
"f.	c #CACEEC",
"g.	c #B7BFE1",
"h.	c #3B52AA",
"i.	c #485DB2",
"j.	c #475CB2",
"k.	c #384EA9",
"l.	c #5767BA",
"m.	c #354DAA",
"n.	c #616EA0",
"o.	c #D3F7FD",
"p.	c #B8E5F6",
"q.	c #D0D1D2",
"r.	c #22388C",
"s.	c #19359C",
"t.	c #344BA8",
"u.	c #D1D5EE",
"v.	c #C4CBE6",
"w.	c #6677C0",
"x.	c #5669B8",
"y.	c #3950AA",
"z.	c #2842A1",
"A.	c #2640A2",
"B.	c #2F4599",
"C.	c #BCBEC6",
"D.	c #CCF3FB",
"E.	c #AFDFF5",
"F.	c #F2F1EE",
"G.	c #989BAB",
"H.	c #213892",
"I.	c #5A6DBF",
"J.	c #939FD5",
"K.	c #7181C4",
"L.	c #7D8BCA",
"M.	c #7485C7",
"N.	c #677AC4",
"O.	c #334AA0",
"P.	c #7B829E",
"Q.	c #F1F0EB",
"R.	c #8FC8ED",
"S.	c #E9E9EA",
"T.	c #EDECE8",
"U.	c #9296A6",
"V.	c #4C5B98",
"W.	c #6F7EC0",
"X.	c #A7B0DE",
"Y.	c #B5BDE5",
"Z.	c #99A4D9",
"`.	c #808EC8",
" +	c #49599A",
".+	c #7E849D",
"++	c #E9E8E2",
"@+	c #EBEBEB",
"#+	c #BDE9F7",
"$+	c #93CBEE",
"%+	c #86C3EB",
"&+	c #E7E7E7",
"*+	c #E8E8E9",
"=+	c #EFEEEA",
"-+	c #C9C8C7",
";+	c #9193A2",
">+	c #8A8DA6",
",+	c #9195AD",
"'+	c #898DA6",
")+	c #8D90A0",
"!+	c #BFBFC0",
"~+	c #EAEAEA",
"{+	c #9FD3F0",
"]+	c #7ABAE9",
"                                            ",
"                                            ",
"                                            ",
". . . . . . . . . . . . . . . . . . . . . . ",
". + + @ # $ % & * = - + + + . ; > , ' ) ! . ",
". + ~ { ] ^ / ( ( _ : < + + . [ , } } | 1 . ",
". ~ 2 3 4 5 6 7 8 9 6 0 a + . > } } } } b . ",
". c d e f g h i j k l m n o . p q r s b t . ",
". u v w x y z A B C D E F G . H ) ! I J K . ",
". L M N O P Q R S T f U V W . . . . . . . . ",
". X Y Z `  ...+.P @.#.$.%.&.. *.=.-.;.>.,.. ",
". '.).!.~.{.].^./.(._.:.<.[.. }.=.-.;.>.,.. ",
". |.1.!.2.3.4.5.6.7.8.9.0.a.. . . . . . . . ",
". b.c.d.e.f.g.h.i.j.k.l.m.n.. o.' q p.s b . ",
". q.r.s.t.u.v.w.x.y.z.A.B.C.. D.q r E.I t . ",
". F.G.H.I.J.K.L.6.M.N.O.P.Q.. H } } } } R.. ",
". S.T.U.V.W.X.Y.Z.`. +.+++@+. #+! } } $+%+. ",
". &+*+=+-+;+>+,+'+)+!+T.~+&+. | 1 {+$+%+]+. ",
". . . . . . . . . . . . . . . . . . . . . . ",
"                                            ",
"                                            ",
"                                            "};
