/* XPM */
static char * image_xpm[] = {
"16 16 108 2",
"  	c None",
". 	c #5B7BAA",
"+ 	c #5877AB",
"@ 	c #466DA8",
"# 	c #3A66A8",
"$ 	c #3A64A8",
"% 	c #436BA8",
"& 	c #5174A8",
"* 	c #5879AB",
"= 	c #DCDEDE",
"- 	c #F2F3F3",
"; 	c #F3F4F7",
"> 	c #F2F4F7",
", 	c #F1F4F7",
"' 	c #EFF4F7",
") 	c #EFF4F8",
"! 	c #EEF3F8",
"~ 	c #EDF2F8",
"{ 	c #EBF2F8",
"] 	c #EBF2F7",
"^ 	c #E8EEF1",
"/ 	c #4A70AA",
"( 	c #F1F2F3",
"_ 	c #5C8196",
": 	c #769EA6",
"< 	c #7DA1A4",
"[ 	c #7AA0AB",
"} 	c #7AA2BA",
"| 	c #7CA3BA",
"1 	c #7EA4BA",
"2 	c #80A6BB",
"3 	c #83A8BC",
"4 	c #65808F",
"5 	c #EAF1F7",
"6 	c #456DAB",
"7 	c #3C66A8",
"8 	c #81A4B6",
"9 	c #ADDCF2",
"0 	c #B0DEF5",
"a 	c #AFDDF2",
"b 	c #AFDEF6",
"c 	c #AFDFF7",
"d 	c #B1E0F8",
"e 	c #B2E1FA",
"f 	c #B4E3FC",
"g 	c #88ABBE",
"h 	c #E8EFF7",
"i 	c #B5E5FE",
"j 	c #B5E4FD",
"k 	c #E7EFF6",
"l 	c #456DAA",
"m 	c #83A5B6",
"n 	c #B0DDF5",
"o 	c #B0DEF6",
"p 	c #AFDDF4",
"q 	c #ADDCF1",
"r 	c #ABDAF3",
"s 	c #ACDAF3",
"t 	c #ABD9F2",
"u 	c #AEDAEF",
"v 	c #84A5B4",
"w 	c #E6EEF4",
"x 	c #EEF3F7",
"y 	c #6E969C",
"z 	c #9DC7E6",
"A 	c #98C5E2",
"B 	c #96C4DF",
"C 	c #88BDC8",
"D 	c #82BAE4",
"E 	c #83BAE4",
"F 	c #99C1D3",
"G 	c #7B9AA5",
"H 	c #E6EDF6",
"I 	c #EDF2F7",
"J 	c #567FA6",
"K 	c #73AADE",
"L 	c #73A9DD",
"M 	c #73A8DD",
"N 	c #72A7DC",
"O 	c #557DA4",
"P 	c #ECF1F7",
"Q 	c #5882AC",
"R 	c #75ADE5",
"S 	c #E5EDF6",
"T 	c #EBF0F7",
"U 	c #3964A6",
"V 	c #ECF0F7",
"W 	c #426281",
"X 	c #E5ECF6",
"Y 	c #436BAA",
"Z 	c #3A64A6",
"` 	c #ECF0F6",
" .	c #D7E8FD",
"..	c #D7E8FE",
"+.	c #E5ECF7",
"@.	c #486DA8",
"#.	c #EAECEE",
"$.	c #F0F2F7",
"%.	c #F0F3F8",
"&.	c #EFF3F8",
"*.	c #EFF3F7",
"=.	c #EFF2F7",
"-.	c #EEF2F7",
";.	c #EEF2F8",
">.	c #EAEEF1",
",.	c #4A70AB",
"'.	c #5374AA",
").	c #4F72AB",
"                                ",
"  . + @ # # # # # $ $ $ $ % &   ",
"  * = - ; > , ' ) ! ~ { ] ^ /   ",
"  @ ( _ : < [ } | 1 2 3 4 5 6   ",
"  7 ; 8 9 0 a b c d e f g h 6   ",
"  7 , g i j j j j j j j g k l   ",
"  7 ' m n o p q r s t u v w l   ",
"  7 x y z A B C D E E F G H l   ",
"  7 I J K K L M N N N N O H l   ",
"  # P Q R R R R R R R R Q S l   ",
"  # T Q R R R R R R R R Q S l   ",
"  U V W Q Q Q Q Q Q Q Q W X Y   ",
"  Z `  ................. .+.Y   ",
"  @.#.$.%.&.*.=.-.-.-.-.;.>.,.  ",
"  '.).l Y Y Y Y Y Y Y Y Y / '.  ",
"                                "};
