/* XPM */
static char * list_item_xpm[] = {
"22 22 56 1",
" 	c None",
".	c #333366",
"+	c #EBEADB",
"@	c #CBC7B8",
"#	c #FFFFFF",
"$	c #E2E0D1",
"%	c #E2DFD1",
"&	c #E1DFD0",
"*	c #E1E0D1",
"=	c #D4D2C2",
"-	c #D4D1C2",
";	c #FBFFFF",
">	c #F4FFFF",
",	c #F1FFFF",
"'	c #ECFFFF",
")	c #EAFFFF",
"!	c #A5A5FF",
"~	c #FF0000",
"{	c #D4D3EF",
"]	c #B4B5FA",
"^	c #0066CC",
"/	c #A3A3FC",
"(	c #FCFCFF",
"_	c #C8C8F7",
":	c #A2A2F7",
"<	c #F7F7FF",
"[	c #B6B8F0",
"}	c #A0A1F2",
"|	c #F3F3FF",
"1	c #F0F0FF",
"2	c #EFEFFF",
"3	c #9EA9E6",
"4	c #9E9FEC",
"5	c #EDEDFF",
"6	c #EBEBFF",
"7	c #939EDD",
"8	c #9D9DE6",
"9	c #E6E6FF",
"0	c #E3E3FF",
"a	c #E2E2FE",
"b	c #8995D4",
"c	c #9B9AE0",
"d	c #A2A9DF",
"e	c #778ACD",
"f	c #6984C9",
"g	c #9998DA",
"h	c #DFDFFE",
"i	c #9494CD",
"j	c #D1D1F7",
"k	c #B3B5E5",
"l	c #DEFFFF",
"m	c #9797D5",
"n	c #9D9FD5",
"o	c #D8D8FF",
"p	c #CBCBF8",
"q	c #C4C4F3",
"                      ",
"                      ",
"......................",
".++++++++++++++++++++.",
".++++++++++@#++++++++.",
".$%$$$%%$&*@#%$$%%%%$.",
".=======--------=====.",
".###############;;>,'.",
".#############;;;>,,'.",
".#.......#####...>,').",
".#############;!!>,').",
"~~~~~~~~~~~~~~~!{]~~~~",
"~^^^^^^^^^^^^^^/(_^^^~",
"~^####^^^^^^^^#:<<[^^~",
"~^^^^^^^^^^^^^^}|123^~",
"~~~~~~~~~~~~~~~425667~",
".##########;>>,86690ab",
".#......##;;;>.c990def",
".#########;;>,,ghijkl.",
"...............mi.non.",
"               i  npqn",
"                   nnn"};
