/* XPM */
static char * angularreg_xpm[] = {
"22 22 6 1",
" 	c None",
".	c #000000",
"+	c #5296F3",
"@	c #00006C",
"#	c #0000FF",
"$	c #FFFFFF",
"                      ",
"        ......        ",
"      ..++++++..      ",
"     .+++@@@@+++.     ",
"    .++@@####@@++.    ",
"   .++@########@++.   ",
"  .++@##########@++.  ",
"  .+@#$##########@+.  ",
" .++@$$$#########@++. ",
" .+@##$###########@+. ",
" .+@##############@+. ",
" .+@##############@+. ",
" .+@##############@+. ",
" .++@############@++. ",
"  .+@############@+.  ",
"  .++@##########@++.  ",
"   .++@########@++.   ",
"    .++@@####@@++.    ",
"     .+++@@@@+++.     ",
"      ..++++++..      ",
"        ......        ",
"                      "};
