/* XPM */
static char * angularmet_xpm[] = {
"21 21 5 1",
" 	c None",
".	c #000000",
"+	c #FFFFFF",
"@	c #A11E1E",
"#	c #5F0A0A",
"                     ",
"                     ",
"       .......       ",
"    ....++.++....    ",
"   ..+++++.+++++..   ",
"  ..++++++.++++++..  ",
"  .+++++++++++++++.  ",
" ..+++++++++++++++.. ",
" .+++@@++++++++++++. ",
" .++++@@+++++++++++. ",
" ....++@@+++++++.... ",
" .++++++@@#++++++++. ",
" .+++++++###+++++++. ",
" .++++++++#++++++++. ",
" ..+++++++.+++++++.. ",
"  ..++++.....++++..  ",
"   ..++..   ..++..   ",
"    ....     ....    ",
"                     ",
"                     ",
"                     "};
