/* XPM */
static char * kwic_xpm[] = {
"16 16 84 1",
" 	c #C10000",
".	c #D25151",
"+	c #C10505",
"@	c #DA6F6F",
"#	c #D24D4D",
"$	c #E79C9C",
"%	c #FCF2F2",
"&	c #DF7A7A",
"*	c #DD7272",
"=	c #EEC2C2",
"-	c #CA2323",
";	c #C40D0D",
">	c #CF3939",
",	c #FFFFFF",
"'	c #FDF7F7",
")	c #C81C1C",
"!	c #C30707",
"~	c #FCF5F5",
"{	c #CA2B2B",
"]	c #DD7575",
"^	c #E07F7F",
"/	c #C81D1D",
"(	c #FFFEFE",
"_	c #F9E8E8",
":	c #C50E0E",
"<	c #C71919",
"[	c #EDB2B2",
"}	c #D65757",
"|	c #E49292",
"1	c #FDF5F5",
"2	c #DB6B6B",
"3	c #D14444",
"4	c #E49191",
"5	c #CB2828",
"6	c #E08282",
"7	c #FEFAFA",
"8	c #DD8B8A",
"9	c #E28787",
"0	c #F7E0E0",
"a	c #F4D2D2",
"b	c #F5D6D6",
"c	c #FCF3F3",
"d	c #FCFAFA",
"e	c #D96262",
"f	c #F9E7E7",
"g	c #FDF9F9",
"h	c #EAA9A9",
"i	c #C92121",
"j	c #FBEDED",
"k	c #E7AAAA",
"l	c #C40B0B",
"m	c #F9E6E6",
"n	c #F5DEDD",
"o	c #F3CECE",
"p	c #C10101",
"q	c #CA2424",
"r	c #EEBABA",
"s	c #C61313",
"t	c #F4D3D3",
"u	c #D76464",
"v	c #D96363",
"w	c #D03F3F",
"x	c #C71A1A",
"y	c #F9EAEA",
"z	c #CB2929",
"A	c #F2CCCC",
"B	c #E9A8A8",
"C	c #C71818",
"D	c #ECB9BA",
"E	c #F3DFDF",
"F	c #C41515",
"G	c #CA2626",
"H	c #F6DCDC",
"I	c #DF8282",
"J	c #EAB5B5",
"K	c #C30808",
"L	c #E8A2A2",
"M	c #D34A4A",
"N	c #CE3939",
"O	c #C20404",
"P	c #CA2525",
"Q	c #D55151",
"R	c #C10808",
"S	c #C82323",
"              .+",
"             @# ",
"    $%&     *=  ",
" -;>,,')  !&~{  ",
" ]^/(,_: <[,}   ",
" |12345<6178    ",
" 9,,0abc,de     ",
" <f,,,,gh5      ",
"  ij,,,k        ",
"  lm(n,op       ",
"  q,rst,u       ",
"  v,w xbyz      ",
"  AB   CDEF     ",
" GH)    !IJK    ",
" LM       NIO   ",
"PQ         RS   "};
