/* XPM */
static char * lcdwindow_xpm[] = {
"22 22 5 1",
" 	c None",
".	c #5C5D52",
"+	c #CACDB4",
"@	c #414141",
"#	c #BEC1A4",
"                      ",
"                      ",
"                      ",
"                      ",
"                      ",
" .................... ",
" .++++++++++++++++++. ",
" .+++@@+++@@+++@@+++. ",
" .++#++@+@++@+@++#++. ",
" .++#++@+@++@+@++#++. ",
" .+++@@+++@@+++@@+++. ",
" .++#++@+@++@+@++@++. ",
" .++#++@+@++@+@++@++. ",
" .+++@@+++@@+++@@+++. ",
" .++++++++++++++++++. ",
" .................... ",
"                      ",
"                      ",
"                      ",
"                      ",
"                      ",
"                      "};
