/* XPM */
static char * linearmet_xpm[] = {
"22 22 4 1",
" 	c None",
".	c #000000",
"+	c #FFFFFF",
"@	c #589146",
"                      ",
"                      ",
"                      ",
"       ........       ",
"       .++++++.       ",
"       .++++++.       ",
"       .++++...       ",
"       .++++++.       ",
"       .++++++.       ",
"       .++++...       ",
"       .++++++.       ",
"       .@@@@@@.       ",
"       .@@@@...       ",
"       .@@@@@@.       ",
"       .@@@@@@.       ",
"       .@@@@...       ",
"       .@@@@@@.       ",
"       .@@@@@@.       ",
"       ........       ",
"                      ",
"                      ",
"                      "};
