/* XPM */
static char * linearreg_xpm[] = {
"22 22 4 1",
" 	c None",
".	c #000000",
"+	c #FFFFFF",
"@	c #589146",
"                      ",
"                      ",
"   ........           ",
"   .++++++.           ",
"   .++++++.           ",
"   .++++...           ",
"   .++++++.           ",
"   .++++++.   ..      ",
"   .++++...  .+.      ",
"   .++++++. .++...    ",
"   .@@@@@@..+++++.    ",
"   .@@@@... .++...    ",
"   .@@@@@@.  .+.      ",
"   .@@@@@@.   ..      ",
"   .@@@@...           ",
"   .@@@@@@.           ",
"   .@@@@@@.           ",
"   ........           ",
"                      ",
"                      ",
"                      ",
"                      "};
