/* XPM */
static const char * toolbook_xpm[] = {
"21 21 25 1",
" 	c None",
".	c #3E9ADE",
"+	c #666699",
"@	c #EBE8D7",
"#	c #CC9900",
"$	c #0047B3",
"%	c #2394E1",
"&	c #FFFFFF",
"*	c #FFFF01",
"=	c #F9FFFF",
"-	c #F2FAFF",
";	c #E6F6FF",
">	c #DFF3FF",
",	c #D6EFFF",
"'	c #DBF1FF",
")	c #CBEBFF",
"!	c #C8C8C8",
"~	c #D2EDFF",
"{	c #C9EAFF",
"]	c #C1E7FF",
"^	c #DDE2EC",
"/	c #848284",
"(	c #EBEBEB",
"_	c #D2D2D2",
":	c #000000",
"                     ",
" ....................",
" .++++@@###@@@$%&&%$.",
" .+&&&+@#*###@$%=&%$.",
" .+-;>,+##***#$%%%%$.",
" .+;',)+##***#$!!!!$.",
" .+'~{]+##***#$!%!!$.",
" .++++++@####@$$$$$$.",
" ....................",
" .^^^^^^^^^^^^^^^^^^.",
" .^////////////////^.",
" .^/&&&&&&&&&&&&&&/^.",
" .^/&&&&&&&&&&&&&&/^.",
" .^////////////////^.",
" .^^^^^^^^((((((((/^.",
" .^^^^^^^^(_:__:_:/^.",
" .^^^^^^^^(:_:_::_/^.",
" .^^^^^^^^(_:__:_:/^.",
" .^^^^^^^^/////////^.",
" .^^^^^^^^^^^^^^^^^^.",
" ...................."};
