/* XPM */
static const unsigned char * scintilla_24_xpm[] = {
"24 24 445 2",
"  	c None",
". 	c #353E51",
"+ 	c #46546E",
"@ 	c #394459",
"# 	c #3F4C66",
"$ 	c #41506C",
"% 	c #3A4866",
"& 	c #303847",
"* 	c #48546A",
"= 	c #627086",
"- 	c #6A768C",
"; 	c #657184",
"> 	c #394151",
", 	c #4C576A",
"' 	c #5E6F8C",
") 	c #404D68",
"! 	c #465679",
"~ 	c #3C4C6E",
"{ 	c #2A344A",
"] 	c #4C586E",
"^ 	c #727F8F",
"/ 	c #50545F",
"( 	c #464B58",
"_ 	c #ACB2BE",
": 	c #424859",
"< 	c #79808A",
"[ 	c #738096",
"} 	c #4C5565",
"| 	c #596680",
"1 	c #5A6C93",
"2 	c #37445C",
"3 	c #4C608D",
"4 	c #2E3A55",
"5 	c #4C5560",
"6 	c #343A47",
"7 	c #858A90",
"8 	c #9B9DA4",
"9 	c #373B4A",
"0 	c #C5C7D1",
"a 	c #24293A",
"b 	c #B6BBCA",
"c 	c #444859",
"d 	c #707F97",
"e 	c #7B8BA8",
"f 	c #303748",
"g 	c #7088B7",
"h 	c #445476",
"i 	c #3D4E73",
"j 	c #3D4F78",
"k 	c #434F65",
"l 	c #8A95A2",
"m 	c #5B5D66",
"n 	c #65666C",
"o 	c #989CAC",
"p 	c #6B6C74",
"q 	c #636981",
"r 	c #C3C3CB",
"s 	c #191E35",
"t 	c #C2C7CE",
"u 	c #535963",
"v 	c #495472",
"w 	c #8EA6CA",
"x 	c #2B313D",
"y 	c #5F70A3",
"z 	c #5B77B1",
"A 	c #2C364F",
"B 	c #3D4B70",
"C 	c #525F6F",
"D 	c #293040",
"E 	c #A7AAB2",
"F 	c #696A75",
"G 	c #80869E",
"H 	c #3F4355",
"I 	c #E6E6ED",
"J 	c #0D101B",
"K 	c #B0B1BB",
"L 	c #8A8B91",
"M 	c #2B2E43",
"N 	c #A1AEB9",
"O 	c #798798",
"P 	c #30385C",
"Q 	c #60759A",
"R 	c #6581B1",
"S 	c #3C435B",
"T 	c #5B70AA",
"U 	c #5875BB",
"V 	c #202736",
"W 	c #4E5F79",
"X 	c #6E7A88",
"Y 	c #333438",
"Z 	c #8D8E96",
"` 	c #5B6584",
" .	c #CDD1DB",
"..	c #0F1421",
"+.	c #D7D8DD",
"@.	c #757680",
"#.	c #282B3C",
"$.	c #D3D4D7",
"%.	c #858894",
"&.	c #3C4061",
"*.	c #5D6879",
"=.	c #A2BDDF",
"-.	c #4A5780",
";.	c #3A3F59",
">.	c #5570A5",
",.	c #4C689F",
"'.	c #505672",
").	c #4E649B",
"!.	c #2B323F",
"~.	c #3E4A5C",
"{.	c #8FA0B7",
"].	c #222635",
"^.	c #C3C9DA",
"/.	c #1E253C",
"(.	c #F5F5F6",
"_.	c #565D7C",
":.	c #32343E",
"<.	c #FFFFFF",
"[.	c #434450",
"}.	c #373B54",
"|.	c #BCC1C8",
"1.	c #99A7B2",
"2.	c #464F7E",
"3.	c #3A4351",
"4.	c #8AA9DE",
"5.	c #6480B3",
"6.	c #4F5A80",
"7.	c #363E57",
"8.	c #4E6FB2",
"9.	c #425D93",
"0.	c #151518",
"a.	c #4D5D72",
"b.	c #A0ABB5",
"c.	c #19284F",
"d.	c #EEEDEE",
"e.	c #111C39",
"f.	c #A2A7BD",
"g.	c #B8B8BB",
"h.	c #323E5F",
"i.	c #5E606F",
"j.	c #2B2E3C",
"k.	c #434C75",
"l.	c #7A8798",
"m.	c #ACC6E4",
"n.	c #58628D",
"o.	c #31354F",
"p.	c #384664",
"q.	c #81ACFC",
"r.	c #5972A2",
"s.	c #586189",
"t.	c #2E3A5B",
"u.	c #5E85D1",
"v.	c #41403F",
"w.	c #5E7286",
"x.	c #ABB8C7",
"y.	c #222A40",
"z.	c #B7C1DE",
"A.	c #7783A7",
"B.	c #090F20",
"C.	c #F9FDFF",
"D.	c #70768A",
"E.	c #38405D",
"F.	c #767E98",
"G.	c #FAFFFF",
"H.	c #3A4358",
"I.	c #485584",
"J.	c #404B62",
"K.	c #A9D1FF",
"L.	c #6D85B8",
"M.	c #484E73",
"N.	c #1E2029",
"O.	c #445D91",
"P.	c #6793EA",
"Q.	c #324468",
"R.	c #57607F",
"S.	c #343E57",
"T.	c #303641",
"U.	c #7A909A",
"V.	c #6B737B",
"W.	c #7A8DB8",
"X.	c #373D50",
"Y.	c #F0F1F1",
"Z.	c #425682",
"`.	c #3B4153",
" +	c #5E6D8C",
".+	c #252C3E",
"++	c #7F90A4",
"@+	c #D1EDFF",
"#+	c #5E6C7E",
"$+	c #525F8A",
"%+	c #202434",
"&+	c #7DA0DC",
"*+	c #7DA7EF",
"=+	c #6B82B9",
"-+	c #4E5779",
";+	c #363F54",
">+	c #486398",
",+	c #87B9E8",
"'+	c #4B5357",
")+	c #424D55",
"!+	c #9AA0A8",
"~+	c #1D273B",
"{+	c #CDD8E0",
"]+	c #354B7C",
"^+	c #A0A1A3",
"/+	c #969599",
"(+	c #4F6D96",
"_+	c #56637E",
":+	c #EFFBFC",
"<+	c #566C91",
"[+	c #151923",
"}+	c #57688A",
"|+	c #A0C4EE",
"1+	c #7A96BC",
"2+	c #687999",
"3+	c #292E36",
"4+	c #3F4E6E",
"5+	c #93C5FF",
"6+	c #6793D5",
"7+	c #6E8BB2",
"8+	c #54699F",
"9+	c #3A3D42",
"0+	c #738CAE",
"a+	c #56616D",
"b+	c #82909E",
"c+	c #38404D",
"d+	c #CFDDF1",
"e+	c #74818B",
"f+	c #334A7B",
"g+	c #F1F1EE",
"h+	c #5B616B",
"i+	c #3C5081",
"j+	c #64789E",
"k+	c #D4F4FE",
"l+	c #63799B",
"m+	c #272A36",
"n+	c #545C73",
"o+	c #7493BC",
"p+	c #94C7F7",
"q+	c #8DAAC9",
"r+	c #2F3342",
"s+	c #17181F",
"t+	c #425466",
"u+	c #C6E3EE",
"v+	c #90B5CF",
"w+	c #3E4B65",
"x+	c #0F0E0D",
"y+	c #55607F",
"z+	c #313742",
"A+	c #AABED5",
"B+	c #364355",
"C+	c #EAECEF",
"D+	c #394970",
"E+	c #465B90",
"F+	c #4E5771",
"G+	c #242F50",
"H+	c #65769C",
"I+	c #ECFDFE",
"J+	c #9BA9B3",
"K+	c #5A5C6A",
"L+	c #404353",
"M+	c #818991",
"N+	c #CEECFF",
"O+	c #B2D6F4",
"P+	c #748CBA",
"Q+	c #495879",
"R+	c #4F5C71",
"S+	c #57667B",
"T+	c #617AB1",
"U+	c #586EA7",
"V+	c #292E3C",
"W+	c #5C6C9D",
"X+	c #8288A0",
"Y+	c #2E3E65",
"Z+	c #647294",
"`+	c #A5A8B3",
" @	c #37496C",
".@	c #586589",
"+@	c #E8F8FF",
"@@	c #626F98",
"#@	c #232739",
"$@	c #47516C",
"%@	c #B9D3F2",
"&@	c #91ACDA",
"*@	c #798199",
"=@	c #3B3C44",
"-@	c #4A4E5E",
";@	c #99AFDA",
">@	c #87AAF9",
",@	c #6988D3",
"'@	c #586D9B",
")@	c #424C5F",
"!@	c #17191C",
"~@	c #131313",
"{@	c #55618B",
"]@	c #161C2D",
"^@	c #9BA6DC",
"/@	c #172549",
"(@	c #A3AEDD",
"_@	c #787C99",
":@	c #1F336A",
"<@	c #4E5F91",
"[@	c #B3BFF1",
"}@	c #7682AE",
"|@	c #3A3E50",
"1@	c #4B4E5E",
"2@	c #687399",
"3@	c #829DEC",
"4@	c #8091C4",
"5@	c #3C414E",
"6@	c #515561",
"7@	c #454B5E",
"8@	c #4E5E8B",
"9@	c #485E9A",
"0@	c #5875C1",
"a@	c #4F68AC",
"b@	c #303A56",
"c@	c #595D78",
"d@	c #383945",
"e@	c #70708B",
"f@	c #21325F",
"g@	c #99A0D1",
"h@	c #777BA1",
"i@	c #2B324C",
"j@	c #383F5A",
"k@	c #94A0D6",
"l@	c #7E88B0",
"m@	c #565968",
"n@	c #5E6069",
"o@	c #454652",
"p@	c #4F5D8B",
"q@	c #7087CD",
"r@	c #475888",
"s@	c #2A2F41",
"t@	c #303544",
"u@	c #4B5779",
"v@	c #444651",
"w@	c #1D222F",
"x@	c #363B4C",
"y@	c #3D435C",
"z@	c #626B9D",
"A@	c #6580CD",
"B@	c #313E63",
"C@	c #686B91",
"D@	c #8187BC",
"E@	c #2F3752",
"F@	c #3B4258",
"G@	c #5F668A",
"H@	c #727DAC",
"I@	c #585F7B",
"J@	c #5A5B62",
"K@	c #70768C",
"L@	c #485166",
"M@	c #323C5B",
"N@	c #42548B",
"O@	c #455993",
"P@	c #303D63",
"Q@	c #252F4C",
"R@	c #2D3241",
"S@	c #35394A",
"T@	c #454B65",
"U@	c #262831",
"V@	c #778BC1",
"W@	c #76889D",
"X@	c #2A3E73",
"Y@	c #5A6AA1",
"Z@	c #787AA5",
"`@	c #4A526D",
" #	c #485272",
".#	c #464D66",
"+#	c #515976",
"@#	c #5B6691",
"##	c #3F4663",
"$#	c #41475C",
"%#	c #4A5573",
"&#	c #494C53",
"*#	c #1D1F26",
"=#	c #2B3246",
"-#	c #2A334E",
";#	c #35394E",
">#	c #4B4F6B",
",#	c #2F3551",
"'#	c #55627E",
")#	c #7E93B7",
"!#	c #26335F",
"~#	c #394A80",
"{#	c #5B5F7F",
"]#	c #525774",
"^#	c #4C597E",
"/#	c #464E6B",
"(#	c #4C5674",
"_#	c #5D6A94",
":#	c #455179",
"<#	c #434F77",
"[#	c #222A42",
"}#	c #535B75",
"|#	c #191D29",
"1#	c #313647",
"2#	c #363A50",
"3#	c #2F303C",
"4#	c #191B24",
"5#	c #596BA5",
"6#	c #404664",
"7#	c #2F3D66",
"8#	c #384263",
"9#	c #4D5370",
"0#	c #444A67",
"a#	c #383F58",
"b#	c #3B435B",
"c#	c #3C4150",
"d#	c #191A1F",
"e#	c #3E445D",
"f#	c #1D2333",
"g#	c #2A2F40",
"h#	c #2B3248",
"i#	c #424865",
"j#	c #343C59",
"k#	c #3B4058",
"l#	c #3C3E51",
"m#	c #373F59",
"n#	c #2A3148",
"o#	c #383D4C",
"p#	c #333645",
"q#	c #313547",
"r#	c #2F364E",
"s#	c #2D344D",
"t#	c #1C1F2A",
"u#	c #262932",
"v#	c #202430",
"w#	c #272935",
"x#	c #333A53",
"y#	c #272A39",
"z#	c #32384E",
"A#	c #303445",
"B#	c #232633",
"C#	c #31374E",
"D#	c #2C3348",
"E#	c #141517",
"F#	c #1B1B1B",
"G#	c #181A1B",
"H#	c #1E2028",
"I#	c #292C3A",
"J#	c #242938",
"K#	c #1B1D22",
"L#	c #171819",
"                  . + @ # $ %                   ",
"            & * = - ; > , ' ) ! ~ {             ",
"          ] ^ / ( _ : < [ } | 1 2 3 4           ",
"        5 6 7 8 9 0 a b c d e f g h i j         ",
"      k l m n o p q r s t u v w x y z A B       ",
"    C D E F G H I J K L M N O P Q R S T U V     ",
"  W X Y Z `  ...+.@.#.$.%.&.*.=.-.;.>.,.'.).!.  ",
"  ~.{.].^./.(._.:.<.[.}.|.1.2.3.4.5.6.7.8.9.0.  ",
"  a.b.c.d.e.f.g.h.i.<.j.k.l.m.n.o.p.q.r.s.t.u.  ",
"v.w.x.y.z.A.B.C.D.E.F.G.H.I.J.K.L.M.N.O.P.Q.R.S.",
"T.U.V.W.X.Y.Z.`.<. +.+++@+#+$+%+&+*+=+-+;+>+,+'+",
")+!+~+{+]+^+/+(+_+:+<+[+}+|+1+2+3+4+5+6+7+8+9+0+",
"a+b+c+d+e+f+g+h+i+j+k+l+m+n+o+p+q+r+s+t+u+v+w+x+",
"y+z+A+B+C+D+E+<.F+G+H+I+J+K+L+M+N+O+P+Q+R+S+T+U+",
"V+W+X+Y+Z+`+ @.@+@@@#@$@%@&@*@=@-@;@>@,@'@)@!@~@",
"  {@]@^@/@(@_@:@<@[@}@|@1@2@3@4@5@6@7@8@9@0@a@  ",
"  b@c@d@e@f@g@h@i@j@k@l@m@n@o@p@q@r@s@t@u@v@w@  ",
"  x@y@:.z@A@B@C@D@E@F@G@H@I@J@K@L@M@N@O@P@Q@R@  ",
"    S@T@U@V@W@X@Y@Z@`@ #.#+#@###$#%#&#*#=#-#    ",
"      ;#>#,#'#)#!#~#{#]#^#/#(#_#:#<#[#}#|#      ",
"        1#2#3#4#5#6#7#8#9#0#a#b#c#d#e#f#        ",
"          g#h#i#j#k#l#m#n#o#p#q#r#s#t#          ",
"            u#v#w#x#y#z#A#B#C#D#E#F#            ",
"                  G#H#I#J#K#L#                  "};
