/* XPM */
static char *cruz_xpm[] = {
/* columns rows colors chars-per-pixel */
"22 22 86 1",
"  c #980000",
". c #990000",
"X c #9A0000",
"o c #9C0000",
"O c #9F0000",
"+ c #9E0200",
"@ c #9E0300",
"# c #9F0300",
"$ c #A30400",
"% c #A30500",
"& c #A40300",
"* c #A60600",
"= c #A60800",
"- c #A70800",
"; c #AA0000",
": c #A80700",
"> c #AB0900",
", c #AC0900",
"< c #AD0800",
"1 c #AD0A00",
"2 c #AE0A00",
"3 c #B30A00",
"4 c #B20C00",
"5 c #B30C00",
"6 c #B60900",
"7 c #B70F00",
"8 c #B80E00",
"9 c #B80F00",
"0 c #BC0B00",
"q c #BE0F00",
"w c #BF0E00",
"e c #B71000",
"r c #B81200",
"t c #BA1000",
"y c #BC1000",
"u c #BC1100",
"i c #BD1100",
"p c #C21300",
"a c #C11500",
"s c #C21400",
"d c #C31400",
"f c #C71700",
"g c #C81200",
"h c #CC1400",
"j c #CC1900",
"k c #CC1A00",
"l c #CE1800",
"z c #CE1D00",
"x c #D11700",
"c c #D11B00",
"v c #D11C00",
"b c #D71D00",
"n c #D61E00",
"m c #D71E00",
"M c #D71F00",
"N c #D81400",
"B c #CF2000",
"V c #D52B00",
"C c #DB2100",
"Z c #DB2400",
"A c #DC2100",
"S c #DF2000",
"D c red",
"F c #E12300",
"G c #E02400",
"H c #E12400",
"J c #E62600",
"K c #E62700",
"L c #E72600",
"P c #EB2900",
"I c #EB2A00",
"U c #EC2800",
"Y c #EC2B00",
"T c #F02B00",
"R c #F12B00",
"E c #F22E00",
"W c #F42D00",
"Q c #F52E00",
"! c #F92F00",
"~ c #FB2F00",
"^ c #F33000",
"/ c #F53100",
"( c #F93100",
") c #FF3300",
"_ c magenta",
"` c None",
/* pixels */
"``````````````````````",
"``O%``````````````DQ~`",
"`.O%*````````````DTQ)`",
"`.O%>,``````````)YY/``",
"`O@%>,6````````SLPE```",
"``O%>,40``````VGLY````",
"```;*,4e8````BCGL`````",
"`````,4eyg``lnCG``````",
"``````4eydkzvnC```````",
"```````eydfkvn````````",
"````````tdflv`````````",
"````````0dflv`````````",
"```````ttdfkvC````````",
"``````37tphcvnC```````",
"`````>4eyd``NnCS``````",
"````-,4ey````ZCGL`````",
"```%*,4t```````ZLP````",
"``@%>,4`````````LPT```",
"`.O%*>```````````PTQ``",
"`.@%-`````````````TQ(`",
"``O%```````````````^~`",
"``````````````````````"
};
