/* XPM */
static char *paste_xpm[] = {
/* columns rows colors chars-per-pixel */
"22 22 243 2",
"   c #737ED9",
".  c #7581B1",
"X  c #7F88B1",
"o  c #7A8ABB",
"O  c #7D8DBB",
"+  c #7C8DC7",
"@  c #7685DB",
"#  c #7885DB",
"$  c #7A85DB",
"%  c #7C87DB",
"&  c #7D8BDB",
"*  c #7E8BDB",
"=  c #7590DF",
"-  c #7693E0",
";  c #66BFF9",
":  c #68B4F3",
">  c #67C1FA",
",  c #976800",
"<  c #986700",
"1  c #9A6500",
"2  c #9F6000",
"3  c #9B6D00",
"4  c #957227",
"5  c #96793F",
"6  c #A06D00",
"7  c #A26E00",
"8  c #A37000",
"9  c #A37200",
"0  c #A47200",
"q  c #A77500",
"w  c #A97700",
"e  c #AA7600",
"r  c #AB7900",
"t  c #A97D10",
"y  c #B07F01",
"u  c #B27D00",
"i  c magenta",
"p  c #B48100",
"a  c #8B857F",
"s  c #9F977F",
"d  c #A19A7F",
"f  c #A2987C",
"g  c #A49B7E",
"h  c #CB9800",
"j  c #CF9C00",
"k  c #CB9B09",
"l  c #D29F00",
"z  c #D5A200",
"x  c #D9A600",
"c  c #DBA902",
"v  c #D5AA13",
"b  c #D6A910",
"n  c #D6AA11",
"m  c #D6AA12",
"M  c #D5AB15",
"N  c #D6AB17",
"B  c #D3AC1D",
"V  c #D3AD1F",
"C  c #D5AC19",
"Z  c #D4AC1B",
"A  c #D4AC1C",
"S  c #D4AD1E",
"D  c #DBAE10",
"F  c #DEB110",
"G  c #E9B500",
"H  c #E1B410",
"J  c #E2B615",
"K  c #E4B710",
"L  c #E8BB10",
"P  c #EABE10",
"I  c #ECBF10",
"U  c #EFC20F",
"Y  c #F5C201",
"T  c #FAC700",
"R  c #F1C411",
"E  c #938F83",
"W  c #908D85",
"Q  c #959282",
"!  c #989381",
"~  c #9B9580",
"^  c #9D9680",
"/  c #808EBB",
"(  c #828FBB",
")  c #8391BB",
"_  c #8693BB",
"`  c #A5A495",
"'  c #8B9AC6",
"]  c #8D9AC6",
"[  c #8F9CC6",
"{  c #8C9ECB",
"}  c #8392DF",
"|  c #919DC6",
" . c #939EC6",
".. c #959FC6",
"X. c #8096E3",
"o. c #8296E3",
"O. c #8398E3",
"+. c #8599E3",
"@. c #8798E1",
"#. c #8799E3",
"$. c #8A9BE3",
"%. c #8C9BE3",
"&. c #8F9CE2",
"*. c #8D9FE5",
"=. c #929EE4",
"-. c #8CA7CB",
";. c #97A0C6",
":. c #99A1C6",
">. c #9FA8CC",
",. c #84A4E6",
"<. c #8AACEA",
"1. c #8BB0EC",
"2. c #90A5E7",
"3. c #94A2E5",
"4. c #94ADEA",
"5. c #96AFEE",
"6. c #98A6E6",
"7. c #A2AACC",
"8. c #A4ABCC",
"9. c #A6ACCC",
"0. c #A9ADCC",
"q. c #ABAECC",
"w. c #ADAFCC",
"e. c #A1ACD0",
"r. c #A9BBDF",
"t. c #ACBDDF",
"y. c #AFBFDF",
"u. c #B0B1CC",
"i. c #B2BBD9",
"p. c #B0BFDF",
"a. c #B3BFDF",
"s. c #A9BEE2",
"d. c #ACBFE2",
"f. c #9ED0FF",
"g. c #B3C1DF",
"h. c #B6C2DF",
"j. c #B3CBDA",
"k. c #B9C4DF",
"l. c #BCC5DF",
"z. c #BDC6DF",
"x. c #BFC7DF",
"c. c #A5D2FF",
"v. c #A6D6FF",
"b. c #A9D4FF",
"n. c #ADD6FF",
"m. c #AED6FF",
"M. c #ADDBFF",
"N. c #BACBE5",
"B. c #B7D7FA",
"V. c #B2D8FF",
"C. c #B7DBFF",
"Z. c #B9D7F9",
"A. c #B8DBFF",
"S. c #BBDDFF",
"D. c #BDD8F9",
"F. c #BCDDFF",
"G. c #BFDFFF",
"H. c #B4E0FF",
"J. c #BBE5FF",
"K. c #C3C8DF",
"L. c #CBCBDD",
"P. c #C2D3E4",
"I. c #C5D6E6",
"U. c #CAD9E7",
"Y. c #C9DEE7",
"T. c #CDDCE9",
"R. c #C4D0F2",
"E. c #C7D2F2",
"W. c #C5DAF5",
"Q. c #C2DBF9",
"!. c #C0DFFF",
"~. c #C7DDF9",
"^. c #C8D9F2",
"/. c #CBDBF2",
"(. c #CED9F6",
"). c #CADFF9",
"_. c #D2D8EA",
"`. c #D1DFEA",
"'. c #D5DAEA",
"]. c #D0DEF2",
"[. c #D4DFF2",
"{. c #C1E0FF",
"}. c #C3E1FF",
"|. c #C4E1FF",
" X c #C5E2FF",
".X c #C6E2FF",
"XX c #C2EAFF",
"oX c #C8E3FF",
"OX c #C9E4FF",
"+X c #CAE4FF",
"@X c #CFE2F9",
"#X c #CCE5FF",
"$X c #CDE6FF",
"%X c #CFE7FF",
"&X c #C9EFFF",
"*X c #D7E0E6",
"=X c #D5E4EB",
"-X c #DAE4E7",
";X c #D9E6ED",
":X c #DCE7E8",
">X c #DDE8E9",
",X c #DEE9EE",
"<X c #D7E1F2",
"1X c #D0E7FF",
"2X c #D4E4F9",
"3X c #D1E8FF",
"4X c #D3E9FF",
"5X c #D4E9FF",
"6X c #D5EAFF",
"7X c #D7EBFF",
"8X c #DCE4F2",
"9X c #D8E6F9",
"0X c #D8EBFF",
"qX c #DBEDFF",
"wX c #DCEDFF",
"eX c #DDEEFF",
"rX c #DFEFFF",
"tX c #D0F4FF",
"yX c #E0EBEF",
"uX c #E1ECEF",
"iX c #E0E5F2",
"pX c #E4E7F2",
"aX c #E2ECF1",
"sX c #E3EDF2",
"dX c #E0EDFC",
"fX c #E0EFFF",
"gX c #E3F1FF",
"hX c #E4F1FF",
"jX c #E5F2FF",
"kX c #E8F3FF",
"lX c #E9F4FF",
"zX c #EAF4FF",
"xX c #ECF5FF",
"cX c #EDF6FF",
"vX c #F0F2F8",
"bX c #F0F7FF",
"nX c #F1F8FF",
"mX c #F2F8FF",
"MX c #F5FAFF",
"NX c #F7FBFF",
"BX c #FAFCFF",
"VX c gray100",
"CX c None",
/* pixels */
"CXCXCXCXCXCX. o O / / ) ) / CXCXCXCXCXCXCXCX",
"CXCX3 7 8 4 -.v.M.H.J.XX&Xj.5 e 0 CXCXCXCXCX",
"CX2 8 h l W f.v.M.H.J.XX&XtX` Y G e CXCXCXCX",
"CX< p j k a E Q ! ~ ^ s d g f J T y CXCXCXCX",
"CX< p l l z x c D F H K L P I U R y CXCXCXCX",
"CX< u j l z x B Y.>X>X>X>X:X-X*Xp.+ CXCXCXCX",
"CX< u l l z x B aXVXVXVXVXVXBXMXE.: - CXCXCX",
"CX< p l l z x B uXVXVXVXVXBXMXbXR.> > = CXCX",
"CX1 p j l z x B aXVXVXVXBXMXnXxX(.<.1.,.& CX",
"CX< p j l z x Z uXVXVXBXMXnXxXkXhXwXqX7X6.CX",
"CX< p j l z x Z uXL.u.w.0.0.9.8.7.>.7.$X3.CX",
"CX< p j l z x C ,XvXpXiX8X<X[.]./.^.W.$X=.CX",
"CX< u l l z x C ,XBXnXxXzXhXfXwX7X3X+X+X%.CX",
"CX< u l l z x M ;X'.K.K.l.k.h.g.y.t.d.{.$.CX",
"CX1 u l l z x M =X_.l.l.k.h.g.p.t.r.s.F.%.CX",
"CX< p j l z x M =XzXhXfXwX7X3X$X+X.X{.S.$.CX",
"CX< p l l z x v T.fX9X2X2X).~.Q.D.Z.B.C.@.CX",
"CX< u j l z x v U.i.:.....| | [ [ ' { V.@.CX",
"CX< p j l z x v I.wX7X7X$X+X.X!.S.C.V.m.O.CX",
"CX, e l l z x b P.0X3X$X+X.X!.F.C.V.m.b.X.CX",
"CXCX7 0 e e r t N.7X$X+X.X{.S.C.V.m.b.c.X.CX",
"CXCXCXCXCXCXCXCX5.4.2.*.@.} * % % % % @   CX"
};
