/* XPM */
static char *tijeras_xpm[] = {
/* columns rows colors chars-per-pixel */
"22 22 141 2",
"   c #0C52B2",
".  c #165FBC",
"X  c #1A62BE",
"o  c #3269BC",
"O  c #336BBD",
"+  c #3469BB",
"@  c #3F72BF",
"#  c #0363C9",
"$  c #0167CC",
"%  c #0466CB",
"&  c #0668CB",
"*  c #0768CB",
"=  c #0F65C4",
"-  c #0966C8",
";  c #096BCE",
":  c #006AD0",
">  c #006BD1",
",  c #006DD3",
"<  c #0070D6",
"1  c #0074DA",
"2  c #057CDF",
"3  c #0976D9",
"4  c #0C77D9",
"5  c #0E77D8",
"6  c #0E7DDE",
"7  c #1A69C5",
"8  c #1D6BC6",
"9  c #1F6DC7",
"0  c #1170D0",
"q  c #1573D0",
"w  c #1773D0",
"e  c #1779D5",
"r  c #1B76D2",
"t  c #007CE1",
"y  c #007EE3",
"u  c #037EE3",
"i  c #047DE1",
"p  c #226EC7",
"a  c #236EC6",
"s  c #2A6DC2",
"d  c #2972C7",
"f  c #2D73C7",
"g  c #2972C8",
"h  c #2973C8",
"j  c #2B74C8",
"k  c #3171C4",
"l  c #3371C4",
"z  c #3274C7",
"x  c #3872C1",
"c  c #3873C3",
"v  c #3C75C4",
"b  c #4177C5",
"n  c #507DC3",
"m  c #527FC6",
"M  c #0082E8",
"N  c #0183E9",
"B  c #4F81C7",
"V  c #558ACE",
"C  c #578BCF",
"Z  c #5988CC",
"A  c #6993D0",
"S  c #6E97D1",
"D  c #7096CF",
"F  c #7498D0",
"G  c #7C9FD5",
"H  c #7EA1D6",
"J  c magenta",
"K  c #8080B1",
"L  c #8484B7",
"P  c #8C8DB8",
"I  c #9192B9",
"U  c #9494B9",
"Y  c #9596BF",
"T  c #9697BE",
"R  c #9798BE",
"E  c #9A9ABD",
"W  c #9B9CBF",
"Q  c #9394C1",
"!  c #929DC8",
"~  c #9898C0",
"^  c #9B9CC0",
"/  c #9C9DC0",
"(  c #9C9DC1",
")  c #9D9EC2",
"_  c #9C9DC4",
"`  c #9C9CC7",
"'  c #84A5D8",
"]  c #86A8D9",
"[  c #89A8D8",
"{  c #93ADDA",
"}  c #9BB5DD",
"|  c #A0A2C6",
" . c #A4A5C6",
".. c #A3A3C9",
"X. c #A4A5C8",
"o. c #A5A7C9",
"O. c #A6A7C9",
"+. c #A7A8C6",
"@. c #A7A9C9",
"#. c #ABABC9",
"$. c #ABABCB",
"%. c #A7A7D5",
"&. c #A9A9D1",
"*. c #ACACD4",
"=. c #AEB0CF",
"-. c #B1B1CD",
";. c #B2B2D0",
":. c #B2B4D0",
">. c #B3B5D0",
",. c #B6B6D9",
"<. c #B9B9D7",
"1. c #BCBCDA",
"2. c #BBBBE3",
"3. c #BFBFE3",
"4. c #BEC0D9",
"5. c #B7C6E5",
"6. c #C5C7DD",
"7. c #C2C2EB",
"8. c #C2C3ED",
"9. c #C7C7EB",
"0. c #CECEE9",
"q. c #CECEF6",
"w. c #CBCBF9",
"e. c #D4D4ED",
"r. c #D4D8E9",
"t. c #D7DAEA",
"y. c #D0D0F7",
"u. c #DDDDF9",
"i. c #DEDEFF",
"p. c #E2E2F5",
"a. c #E1E1FC",
"s. c #E4E4F9",
"d. c #E4E4FF",
"f. c #E6E6FD",
"g. c #E7E7FF",
"h. c #EBEBFF",
"j. c #EDEDFB",
"k. c #F3F3FF",
"l. c #F5F5FF",
"z. c #F6F6FF",
"x. c None",
/* pixels */
"x.x.x.x.x.x.x.x.x.x.x.x.x.x.x.x.x.x.x.x.x.x.",
"x.x.x.x.x.x.x.x.E W x.x.x.x.x.x.x.x.x.x.x.x.",
"x.x.x.x.x.x.x.#.z./ x.x.x.x.x.x.x.x.x.x.x.x.",
"x.x.x.x.x.x.x.-.z.X.x.x.x.x.x.x.X.#.t.x.x.x.",
"x.x.x.x.x.x.x.+.k.1.x.x.x.x.x./ s.j.U x.x.x.",
"x.x.x.x.x.x.x.>.p.e.>.x.x.x.x.,.h.;.6.x.x.x.",
"x.x.x.x.x.x.x.x.<.d.^ x.x.x.T d.0. .x.x.x.x.",
"x.x.x.x.x.x.x.x. .h.R x.x.=.9.u.I x.x.x.x.x.",
"x.x.x.x.x.x.x.x.@.a.R x.x._ i.Q x.x.x.x.x.x.",
"x.x.x.x.x.x.x.x.x.3.&.x._ y.*.4.x.x.x.x.x.x.",
"x.x.x.x.x.x.x.x.x...2.X.%.7./ x.x.x.x.x.x.x.",
"x.x.x.x.x.x.x.x.x.| q.K w.P x.x.x.x.x.x.x.x.",
"x.x.x.x.x.x.x.} ' ! 8.L Q t.x.x.x.x.x.x.x.x.",
"x.x.x.x.x.F a 1 u 4   = j C x.x.x.x.x.x.x.x.",
"x.x.x.x.@ % k S H c > i e u q x.x.x.x.x.x.x.",
"x.x.x.n # B x.x.x.z & r x.x.h 0 x.x.x.x.x.x.",
"x.x.x.. v x.x.x.[ 2 7 6 x.x.x.8 s x.x.x.x.x.",
"x.x.x.X x x.x.x.d q V N x.x.x.D > x.x.x.x.x.",
"x.x.x.o $ k b 9 3 A ] N Z x.x.5.* x.x.x.x.x.",
"x.x.x.x.O - ; f G x.x.h 5 B { + > x.x.x.x.x.",
"x.x.x.x.x.x.x.x.x.x.x.x.a u < > x.x.x.x.x.x.",
"x.x.x.x.x.x.x.x.x.x.x.x.x.x.x.x.x.x.x.x.x.x."
};
