/* XPM */
static char *undo_xpm[] = {
/* width height num_colors chars_per_pixel */
"    22    20        8            1",
/* colors */
"` c #043aa1",
". c None",
"# c #046dd2",
"a c #0486ec",
"b c #044db3",
"c c #0479de",
"d c #0491f7",
"e c #0459c1",
/* pixels */
"...........```bb``....",
"...`....```ecaaad#``..",
"..```.```#caacaaadde`.",
"..`e```#ccce`b`bbcddb`",
".``##e#c#b``....``cda`",
".`e###ce``.......``ddb",
"``###cb`..........`adb",
"`b#####`..........`ddb",
"`eeeebb``.........`ddb",
"`````````........`add`",
"................`#dde`",
"...............`edde`.",
"..............`bdd#`..",
".............`baa#``..",
"............``aac``...",
"...........``aac``....",
"..........``cac``.....",
".........``#ac``......",
".........``##``.......",
"..........````........"
};
