/* XPM */
static char * staticbox_sizer_xpm[] = {
"21 21 20 1",
" 	c None",
".	c #666666",
"+	c #000000",
"@	c #7A7A7A",
"#	c #FFFFFF",
"$	c #F0F0F0",
"%	c #0F0F0F",
"&	c #D8D8D8",
"*	c #D9D9D9",
"=	c #030303",
"-	c #D7D7D7",
";	c #010101",
">	c #020202",
",	c #0A0A0A",
"'	c #060606",
")	c #050505",
"!	c #040404",
"~	c #0B0B0B",
"{	c #070707",
"]	c #0D0D0D",
"                     ",
"    .+.+.+.+         ",
"@@@ +.+.+.+. @@@@@@@@",
"@                   @",
"@ ###############$% @",
"@ #&&*******&&&&&@= @",
"@ #&&&&&&&&&&&-&&@; @",
"@ #@@@@@@@@@@@@@@@+ @",
"@ >+,;;;;;;;',++>>' @",
"@ ###############$+ @",
"@ #&&&&&&&&&&&&&&@) @",
"@ #&&&&&&&&&&&&&&@) @",
"@ #@@@@@@@@@@@@@@@! @",
"@ )+~+++++++=+{>+;+ @",
"@ ###############$! @",
"@ #&&&&&&&&&&&&&&@+ @",
"@ #&&&&&&&&&&&&&&@+ @",
"@ #@@@@@@@@@@@@@@@! @",
"@ ++]+++++++>+';+++ @",
"@                   @",
"@@@@@@@@@@@@@@@@@@@@@"};
